<svg width="64" height="57" viewBox="0 0 64 57" fill="none" xmlns="http://www.w3.org/2000/svg">
<rect x="3.57541" y="23.9553" width="55.2402" height="13.9441" rx="6.97207" fill="white"/>
<circle cx="8.49162" cy="29.4078" r="8.49162" fill="white"/>
<circle cx="19.1285" cy="18.7709" r="10.7263" fill="white"/>
<circle cx="38.7039" cy="15.4637" r="15.4637" fill="white"/>
<circle cx="54.1676" cy="28.067" r="9.8324" fill="white"/>
<rect x="16.9891" y="41.6582" width="2.09455" height="5.58545" rx="1.04727" fill="#55B6ED"/>
<rect x="27.4618" y="41.6582" width="2.09455" height="5.58545" rx="1.04727" fill="#55B6ED"/>
<rect x="37.9345" y="41.6582" width="2.09455" height="5.58545" rx="1.04727" fill="#55B6ED"/>
<rect x="48.4073" y="41.6582" width="2.09455" height="5.58545" rx="1.04727" fill="#55B6ED"/>
<rect x="17.2218" y="50.9673" width="2.09455" height="5.58545" rx="1.04727" fill="#55B6ED"/>
<rect x="27.6945" y="50.9673" width="2.09455" height="5.58545" rx="1.04727" fill="#55B6ED"/>
<rect x="38.1673" y="50.9673" width="2.09455" height="5.58545" rx="1.04727" fill="#55B6ED"/>
<rect x="48.64" y="50.9673" width="2.09455" height="5.58545" rx="1.04727" fill="#55B6ED"/>
<rect x="17.2218" y="50.9673" width="2.09455" height="5.58545" rx="1.04727" fill="#55B6ED"/>
<rect x="27.6945" y="50.9673" width="2.09455" height="5.58545" rx="1.04727" fill="#55B6ED"/>
<rect x="38.1673" y="50.9673" width="2.09455" height="5.58545" rx="1.04727" fill="#55B6ED"/>
<rect x="48.64" y="50.9673" width="2.09455" height="5.58545" rx="1.04727" fill="#55B6ED"/>
</svg>
