<svg width="64" height="67" viewBox="0 0 64 67" fill="none" xmlns="http://www.w3.org/2000/svg">
<rect x="3.57541" y="23.9553" width="55.2402" height="13.9441" rx="6.97207" fill="white"/>
<circle cx="8.49162" cy="29.4078" r="8.49162" fill="white"/>
<circle cx="19.1285" cy="18.7709" r="10.7263" fill="white"/>
<circle cx="38.7039" cy="15.4637" r="15.4637" fill="white"/>
<circle cx="54.1676" cy="28.067" r="9.8324" fill="white"/>
<path d="M26.5611 46.9544C28.0926 44.5008 31.8969 45.8954 31.5224 48.7732V48.7732C31.3485 50.1094 30.2174 51.1041 28.8719 51.1041V51.1041C26.7469 51.1041 25.438 48.7537 26.5611 46.9544V46.9544Z" fill="#F5C456"/>
<path d="M34.9745 54.3843C33.424 56.8572 29.588 55.4163 30.0065 52.5181V52.5181C30.1975 51.1949 31.3246 50.2178 32.6597 50.2178V50.2178C34.7934 50.2178 36.1058 52.5799 34.9745 54.3843V54.3843Z" fill="#F5C456"/>
</svg>
